<svg width="38" height="38" viewBox="0 0 38 38" fill="none" xmlns="http://www.w3.org/2000/svg">
<path fill-rule="evenodd" clip-rule="evenodd" d="M0.666665 3.72984C0.666665 2.9174 0.989408 2.13822 1.56389 1.56374C2.13838 0.989251 2.91755 0.666508 3.73 0.666508H34.2667C34.6693 0.66585 35.0681 0.744613 35.4402 0.898286C35.8124 1.05196 36.1506 1.27752 36.4354 1.56207C36.7203 1.84661 36.9462 2.18455 37.1003 2.55652C37.2544 2.9285 37.3336 3.32722 37.3333 3.72984V34.2665C37.3338 34.6692 37.2548 35.0681 37.1009 35.4402C36.9471 35.8124 36.7214 36.1505 36.4367 36.4354C36.152 36.7202 35.814 36.9461 35.4419 37.1002C35.0698 37.2542 34.671 37.3334 34.2683 37.3332H3.73C3.32758 37.3332 2.9291 37.2539 2.55733 37.0998C2.18556 36.9458 1.84778 36.72 1.5633 36.4354C1.27883 36.1507 1.05322 35.8128 0.899368 35.441C0.74552 35.0691 0.666446 34.6706 0.666665 34.2682V3.72984ZM15.18 14.6465H20.145V17.1398C20.8617 15.7065 22.695 14.4165 25.45 14.4165C30.7317 14.4165 31.9833 17.2715 31.9833 22.5098V32.2132H26.6383V23.7032C26.6383 20.7198 25.9217 19.0365 24.1017 19.0365C21.5767 19.0365 20.5267 20.8515 20.5267 23.7032V32.2132H15.18V14.6465ZM6.01333 31.9848H11.36V14.4165H6.01333V31.9832V31.9848ZM12.125 8.68651C12.1351 9.1443 12.0536 9.59949 11.8854 10.0254C11.7172 10.4512 11.4656 10.8392 11.1454 11.1666C10.8252 11.4939 10.4428 11.754 10.0208 11.9315C9.59868 12.1091 9.1454 12.2005 8.6875 12.2005C8.2296 12.2005 7.77631 12.1091 7.35424 11.9315C6.93217 11.754 6.54981 11.4939 6.22961 11.1666C5.90941 10.8392 5.65782 10.4512 5.4896 10.0254C5.32138 9.59949 5.23992 9.1443 5.25 8.68651C5.26979 7.78793 5.64064 6.93283 6.28314 6.30432C6.92564 5.67581 7.7887 5.32387 8.6875 5.32387C9.58629 5.32387 10.4494 5.67581 11.0919 6.30432C11.7344 6.93283 12.1052 7.78793 12.125 8.68651Z" fill="#131415"/>
</svg>
